<svg id="final_svg" viewBox="234.6025848388672 202.300048828125 602.0999755859375 665.2100219726562" xmlns="http://www.w3.org/2000/svg" xmlns:xlink="http://www.w3.org/1999/xlink" xml:space="preserve">
      <g id="png_group" transform="translate(344.96258554710994, 202.30005052592531) scale(1.502)" opacity="1">
      <g height="473.13" width="388.110792" transform="rotate(0)">
                  <style type="text/css">.st0{fill:#F4CD9A;}	.st1{fill:#5E8CEA;}	.st2{fill:#94B236;}	.st3{fill:#EF9235;}	.st4{fill:#D32F2F;}	.st5{fill:#FFFFFF;}	.st6{opacity:0.31;fill:#FFFFFF;}	.st7{opacity:0.52;fill:#131313;}	.st8{opacity:0.27;fill:#451E1B;}	.st9{fill:#451E1B;}</style>
          <g id="color_index_4" fill="rgba(244, 205, 154, 1)">
                          <path d="M218.8157,276.998c-9.5653-5.7252-24.1968-5.9505-24.1968-5.9505		c-16.7026,1.3867-45.7776,12.4846-45.7776,12.4846c-4.4493-5.7579-21.1757-10.231-24.9588-12.4846		c-3.783-2.2536-8.0928-6.5437-10.77-1.3968c-2.6772,5.147,7.558,12.9773,7.558,12.9773s-19.7006-2.4745-24.4829-4.5445		c-4.7824-2.07-7.0792-0.3679-7.0792-0.3679l-25.9692-6.6682c-9.9216,0.6729-26.815,6.0793-31.3352,10.4622		c-4.5203,4.383-16.441,6.6383-16.441,6.6383c22.3654,27.0287,92.1738,18.5354,92.1738,18.5354s10.3499,7.5892,21.0158,7.0182		c10.6659-0.571,19.575-8.2324,19.575-8.2324c22.175,5.3296,58.0094,1.7369,74.1863-4.0448		c16.1769-5.7817,21.6991-13.8475,21.6991-13.8475C235.5903,289.2899,228.381,282.7231,218.8157,276.998z"></path>
              <path d="M181.0071,102.6344c2.8935-6.2184-0.0589-11.9578-5.3885-13.5574c0.9157-1.5211,1.9356-2.9235,3.0591-4.1207		c0,0-10.9119-20.5861-48.0215-19.9767c-37.1096,0.6093-50.7667,19.9767-50.7667,19.9767s1.0679,1.9741,2.4137,4.9298		c-2.8558,1.345-5.715,3.2674-6.0303,5.6365c-0.6424,4.8277,3.2887,13.6073,5.1419,14.5352		c1.3656,0.6838,3.0482,2.0597,6.2923,1.8826c-0.1494,6.5971-1.1619,11.2099-1.079,15.6665		c-3.9591,0.1281-6.929-0.0546-6.929-0.0546c4.7913,9.0511,12.2305,13.1202,15.6338,14.5842		c1.3272,2.0743,5.9226,6.3945,5.9226,6.3945c-0.4996,8.3869-10.1708,13.7518-10.1708,13.7518s9.3619,20.7955,37.6278,21.652		c28.266,0.8565,38.5963-21.0329,38.5963-21.0329c-8.0379-4.3779-10.3303-14.2757-10.3303-14.2757		c2.6125-0.8981,4.9395-4.5194,5.5498-5.5332c8.3447-3.5809,17.0058-16.4515,17.0058-16.4515		c-2.536,0.5967-5.1409,0.6957-7.7597,0.4902c0.0136-1.8798,0.016-9.6497-0.8014-14.52		C177.4496,112.6441,179.966,105.0158,181.0071,102.6344z M129.2672,130.1629c1.7322,4.4989,4.5747,7.6366,7.9321,9.7938		c-5.5977,3.2009-12.7701,1.4345-16.7251,0.0064C126.3845,135.7633,129.2672,130.1629,129.2672,130.1629z"></path>
                      </g>
          <g id="color_index_3" fill="rgba(94, 140, 234, 1)">
                          <path d="M76.9807,225L62.473,253.6474c0,0,6.3765,9.7216,3.1407,17.4l23.4947,6.6681c0,0,3.4389-1.94,6.6747-0.4173		c3.2358,1.5227,9.993,4.4731,23.9833,5.0441c0,0-7.8517-9.0413-7.1617-11.5158s2.4983-3.902,5.3058-2.6172		s9.7075,5.9006,13.9427,6.9c4.2351,0.9993,15.0371,4.6158,16.9881,8.4227c0,0,33.3101-12.5492,45.3969-12.4846		c0,0-3.7593-2.0291-2.1414-6.2643c1.6179-4.2351,4.14-11.0875,4.14-11.0875l-14.8242-27.6474c0,0,1.8333-12.6102,6.4967-21.9371		s15.7985-23.6978,15.7985-25.7915c0-2.0938,0.1776-6.508-7.6137-8.5655c-7.7914-2.0575-6.091-4.7586-10.2785-2.6648		c-4.1875,2.0938-15.5047,22.5557-18.5067,41.7803c0,0-38.1441-10.8972-76.1533,0c0,0-4.4136-23.0315-12.6936-33.9763		c-8.2799-10.9447-6.0533-8.2895-11.9916-7.2175S52.9559,174.9745,55.24,180.128S71.7221,199.7943,76.9807,225z"></path>
                      </g>
          <g id="color_index_2" fill="rgba(148, 178, 54, 1)">
                          <path d="M74.9881,168.9454l8.7796-2.5378c-1.8533-3.8883,4.2814-7.8111,7.317-4.1247		c1.2485,1.7374,8.7443,20.3357,38.181,21.652c23.4564,1.0489,34.4392-14.2307,37.9336-20.4823		c1.6336-3.5521,10.1155-1.131,7.3384,2.955l8.8985,2.4426c0,0-13.6964,22.2226-16.1275,40.4955c0,0-33.1-12.2771-76.1533,0		C91.1554,209.3457,86.266,185.1721,74.9881,168.9454z"></path>
              <path d="M62.3539,253.7877l14.6267-28.1676c-0.9788-6.4123-15.4633-40.9196-21.7407-45.4921		c-20.0213,10.2202-32.2654,46.0827-40.8452,66.4749c-19.4462,1.1623-10.3091,14.9772-7.5822,23.0477		c0.1903,4.0924-1.0618,16.4034,7.5988,18.4972c8.6606,2.0938,19.507-9.0815,27.457-12.3173		c7.9501-3.2358,22.4436-3.2059,23.7453-4.7831C67.0059,269.6015,65.9486,257.9952,62.3539,253.7877z"></path>
              <path d="M195.8385,253.7877l-14.6267-28.1676c0.9788-6.4123,15.4633-40.9196,21.7407-45.4921		c20.0213,10.2202,32.2654,46.0827,40.8452,66.4749c19.4462,1.1623,10.7999,17.1049,8.073,25.1754		c-0.1903,4.0924,0.571,14.2757-8.0896,16.3695c-8.6606,2.0938-19.4416-9.0815-27.3917-12.3173		c-7.9501-3.2358-22.5089-3.2059-23.8107-4.7831C191.1865,269.6015,192.2438,257.9952,195.8385,253.7877z"></path>
              <path d="M144.1048,267.1869c0,0,8.7356-6.8054,18.0258,1.0463c0,0-3.0583,7.8517-2.2731,11.4206l-11.4206,4.4255		l-5.8531-5.4962C142.5838,278.5831,144.7412,274.6787,144.1048,267.1869z"></path>
              <path d="M141.2276,252.3431c0,0,9.4934-5.9518,12.3485,4.8978C153.5761,257.2409,145.5817,261.5783,141.2276,252.3431z		"></path>
              <path d="M92.8328,255.4564c0,0-9.7994-3.1733-9.7075-7.0157c0.0919-3.8424,3.9258-2.549,3.9258-2.549		s-1.5703-8.4941,0.3569-8.3513c1.9272,0.1428,6.4955,5.0679,6.4955,5.0679s1.3785-3.3884,3.9302-2.0783		c2.5517,1.3101,0.7094,11.8572,0.7094,11.8572L92.8328,255.4564z"></path>
              <path d="M178.3549,263.6597c0,0,8.7651-5.4102,7.7632-9.1208c-1.002-3.7106-4.419-1.5435-4.419-1.5435		s-0.4923-8.624-2.3304-8.0275s-5.1057,6.4658-5.1057,6.4658s-2.1439-2.964-4.3114-1.0853		c-2.1675,1.8788,2.1275,11.6863,2.1275,11.6863L178.3549,263.6597z"></path>
                      </g>
          <g id="color_index_1" fill="rgba(239, 146, 53, 1)">
                          <path d="M174.3409,40.6937c-1.727-16.6863-10.5717-34.3535-23.2631-38.3463		c-12.7054-3.9972-21.7204,7.1378-21.7204,7.1378s-9.6863-13.9902-26.1034-5.5675C88.406,11.5354,84.7689,35.6145,84.2091,40.1482		C55.916,45.0195,38.5238,54.6845,41.5829,66.2014c0,0,3.5214,12.8543,38.3066,18.755c0,0,8.5775-19.986,49.3049-19.986		c40.7275,0,49.4833,19.986,49.4833,19.986s34.2142-5.4724,38.4969-19.986C220.0577,55.2,202.2398,45.7968,174.3409,40.6937z"></path>
              <path d="M159.5006,279.6538c0,0,0.2141-17.7019,12.634-17.2023c12.4199,0.4996,13.1337,10.8495,13.1337,10.8495		L159.5006,279.6538z"></path>
              <path d="M92.1666,277.2031c0,0-6.497-9.3268-3.0582-18.844c3.4389-9.5172,16.9532-5.52,19.2373-2.9503		c2.2841,2.5696,6.662,11.7781,6.662,11.7781c-6.3723,1.9956,5.1504,15.5123,5.1393,15.441L92.1666,277.2031z"></path>
              <path d="M112.6047,261.0953c0,0,7.5661-10.1525,15.3464-8.7523c16.1706,2.5516,19.5282,16.2625,14.0616,26.2401		c-6.0983-0.9686-19.7638-8.6755-26.6243-11.0976L112.6047,261.0953z"></path>
                      </g>
          <g>
                          <path class="st4" d="M121.5271,140.3225c0,0,4.8421-2.7124,7.6674-9.5647c0,0,2.0648,5.7098,7.679,9.5647		C136.8735,140.3225,129.8784,144.748,121.5271,140.3225z"></path>
                      </g>
          <g>
                          <path class="st5" d="M106.2996,95.5226c0,0,0.7614,5.5546,4.1876,6.5117c0,0-7.233,3.81-8.7082-5.5157L106.2996,95.5226z"></path>
              <path class="st5" d="M148.6272,95.6089c0,0,0.7614,5.5546,4.1875,6.5117c0,0-7.233,3.81-8.7082-5.5157L148.6272,95.6089z"></path>
              <path class="st5" d="M125.1436,136.5235c0,0,3.6165,1.6021,6.9951,0c3.3786-1.6021-3.4976-4.7583-3.4976-4.7583L125.1436,136.5235z		"></path>
                      </g>
          <g>
                          <path class="st6" d="M155.9316,219.3388l-38.6697,13.4192c-3.9738-0.5889-13.6206,5.9477-15.3878-1.2372		c-0.9041-3.5213-4.2351-11.3254,0-13.0861S134.518,210.4164,155.9316,219.3388z"></path>
              <path class="st6" d="M158.8048,8.6225c0,0,4.8357,13.7104,3.1226,29.5091l12.4199,2.6175		C174.3473,40.7491,172.3605,17.2451,158.8048,8.6225z"></path>
              <path class="st6" d="M184.8275,44.0832c0,0,19.832,3.8502,20.9741,16.645s-31.597,18.2086-31.597,18.2086l5.3296,6.4955		c0,0,34.6425-6.5193,37.6404-20.4619S194.334,46.1379,184.8275,44.0832z"></path>
              <path class="st6" d="M161.4992,158.9523c0,0-11.337,21.137-43.671,23.4294c0,0,31.1643,9.3097,49.4807-19.4798		C167.3088,162.902,161.7847,161.2365,161.4992,158.9523z"></path>
              <path class="st6" d="M94.9751,255.1011c0,0,11.5405,3.116,15.4883,25.6948l10.2072,1.8321c0,0-6.1985-4.7844-7.1575-10.0033		s2.161-5.4377,2.161-5.4377S107.1104,243.7534,94.9751,255.1011z"></path>
              <path class="st6" d="M137.73,259.8819c0,0,2.7124,5.9244-1.9986,14.9895l6.8524,4.0223c0,0,6.0672-12.3246-3.4262-21.5926		L137.73,259.8819z"></path>
              <path class="st6" d="M169.0653,127.5523c0,0-2.4269,8.2733-10.8496,8.2733c0,0,5.4125,6.1054-7.0012,8.3347		c0,0,11.0067,0.2783,16.0943-3.5286s12.6636-11.788,11.588-13.0795C177.8211,126.2609,169.0653,127.5523,169.0653,127.5523z"></path>
              <path class="st6" d="M129.1969,193.3265c0,0,31.461,2.7741,48.5722-15.0602l5.6671-9.4161l-8.8985-2.4426		C174.5377,166.4076,162.4945,190.9557,129.1969,193.3265z"></path>
              <path class="st6" d="M65.0066,168.0413c0,0,15.3897,25.2728,21.6931,58.7481c0,0,6.915,0.638,6.0981-8.4978		s-7.2036-36.2331-17.8097-49.3463C74.9881,168.9454,72.1048,163.8955,65.0066,168.0413z"></path>
              <path class="st6" d="M244.0102,246.6029c0,0-17.6616-43.8294-26.1888-54.3881c-7.7724-9.6241-13.5362-11.7392-14.4985-12.0394		c0.6535-2.0457,1.1126-5.0258-0.8984-6.7616c-0.6272-0.5414-5.4819-5.0643-6.1662-2.215c0,0-22.6631,25.3501-20.7092,57.0377		c0,0,4.0551,1.5332,6.3266-5.3949c1.7638-5.3795,7.7635-20.7184,14.5616-32.0274c3.0482,3.0039,22.5054,23.2043,32.1383,58.4084		l8.0896-1.4752c0,0,5.4248,7.1378,2.4268,13.9902c-2.9979,6.8524,0.1428,20.8902-8.4227,21.7943		c2.6589,3.5384,21.6946,8.7721,20.5571-4.3779c0.2855-7.2092-0.2855-11.7775,2.5696-15.7747		C261.4592,252.5212,251.0459,247.4714,244.0102,246.6029z"></path>
              <ellipse class="st6" cx="128.9415" cy="156.1329" rx="4.131" ry="2.0343"></ellipse>
                      </g>
          <g>
                          <path class="st7" d="M79.6991,127.486c0,0,15.8751,0.9906,23.2126-3.1959c7.3375-4.1865,13.6485-9.2307,26.1964-1.6645		c0,0,7.8123-5.3358,17.1161-2.8075c9.3038,2.5283,21.9847,9.422,33.3101,6.7572c0,0-10.9447,16.2744-20.0812,17.3213		c-9.1365,1.0469-24.8724,0-30.1857-13.7999c0,0-10.3006,20.1764-32.1233,12.6578C97.144,142.7544,86.0756,139.5319,79.6991,127.486		z"></path>
                      </g>
          <g>
                          <path class="st8" d="M129.1969,163.1294c0,0-14.4746,0.4388-28.9407-9.5542l0.9993-5.0441l15.7192,6.4717		C116.9747,155.0027,121.6868,162.4051,129.1969,163.1294z"></path>
              <path class="st8" d="M167.491,74.0145c0,0,4.4291,9.7765,1.7406,29.8397c2.6181-4.7278,7.1086-14.6645,8.4419-19.8716		C177.6736,83.9827,171.9026,74.8797,167.491,74.0145z"></path>
              <path class="st8" d="M62.3869,190.4079c0,0-22.0889,20.5558-32.5578,58.8148l-8.0896-1.4752c0,0-5.4248,7.1379-2.4269,13.9902		s-0.1428,20.8902,8.4227,21.7943c-2.6589,3.5384-21.6947,8.7721-20.5571-4.3779c-0.2855-7.2092,0.2855-11.7775-2.5696-15.7747		c-7.6629-10.8583,2.7504-15.908,9.7861-16.7766c0.9923-3.0564,25.6148-66.0429,40.8452-66.4749L62.3869,190.4079z"></path>
              <path class="st8" d="M77.338,225.4171c0,0,1.437,31.0181-3.8113,47.2075l-7.5324-1.6077		c1.9381-2.7579-2.4062-16.1117-3.5213-17.3695L77.338,225.4171z"></path>
              <path class="st8" d="M192.7342,263.5247c-0.9267,4.2101,0,7.4935,0,7.4935l-6.5364,1.6405		c-1.131-3.5023-3.243-6.8706-5.9688-9.4977c1.3936-1.9992,6.0915-8.195,5.5881-9.4646c-0.4669-1.182-2.5538-0.9632-3.9474-0.6713		c-1.1091-13.929-0.4815-27.61-0.4815-27.61l14.8702,28.2301C196.2584,253.6453,193.6608,259.3074,192.7342,263.5247z"></path>
              <path class="st8" d="M82.7684,90.0258c0,0,6.21,11.6094,4.9251,22.2448c0,0-1.3562,0.5885-4.9251-1.8114		c-3.5689-2.3999-6.5656-12.6785-6.5656-12.6785S74.6312,93.5487,82.7684,90.0258z"></path>
              <path class="st8" d="M122.8151,5.7418c0,0-18.1064,0.1946-18.2389,31.9005l-20.4516,3.2496c0,0,1.1421-21.5564,15.2037-33.1197		S122.8151,5.7418,122.8151,5.7418z"></path>
              <path class="st8" d="M147.1835,64.965c-59.2146-9.2398-73.623,18.3596-73.623,18.3596c4.437,0.5174,9.6171,3.7646,11.0327,8.1858		c19.3602-27.8981,65.6573-22.8539,65.6573-22.8539L147.1835,64.965z"></path>
              <path class="st8" d="M144.5005,271.4928c0,0,8.005,1.2372,12.2401,8.161l-7.8992,3.8782l-7.1855-5.4248		C141.6559,278.1073,144.5375,276.2038,144.5005,271.4928z"></path>
              <path class="st8" d="M176.1318,263.6597c0,0,4.6396,7.0629-4.0686,11.8854c-8.7082,4.8225,12.8675-2.8864,12.8675-2.8864		S183.2697,264.8679,176.1318,263.6597z"></path>
              <path class="st8" d="M31.804,281.5096c0,0,20.6923,17.9747,71.3812,19.8671l2.9716,2.0938v3.2127		c0,0-66.0491,9.5879-90.7938-18.8923C15.3631,287.791,21.3113,289.5754,31.804,281.5096z"></path>
              <path class="st8" d="M227.929,281.5096c0,0-20.6923,17.9747-71.3812,19.8671l-4.3853,1.4752l-3.9398,3.2834		c0,0,71.4025,10.1358,96.1472-18.3443C244.3699,287.791,238.4217,289.5754,227.929,281.5096z"></path>
              <path class="st8" d="M104.1257,290.0751c0,0,10.4776,13.7761,20.7562,15.7033c10.2785,1.9272,28.167-3.2247,28.167-3.2247		s-10.7506,9.1491-18.174,9.7915c-7.4234,0.6424-20.4143-1.0707-23.9119-3.6403c-3.4976-2.5696-4.8062-6.4241-4.8062-6.4241		s-6.7686-4.8105-7.471-7.5822c-0.7024-2.7716-5.7817-4.4809-4.7824-7.907L104.1257,290.0751z"></path>
              <path class="st8" d="M88.8397,127.5523c0,0,2.4269,8.2733,10.8496,8.2733c0,0-5.4125,6.1054,7.0012,8.3347		c0,0-11.0067,0.2783-16.0943-3.5286s-12.6636-11.788-11.588-13.0795C80.0839,126.2609,88.8397,127.5523,88.8397,127.5523z"></path>
              <path class="st8" d="M114.7265,120.4788c0,0,7.7029,0.7937,9.2913,7.0735c1.5884,6.2799-1.4885,9.6832-1.4885,9.6832		s5.865-2.7899,6.7379-9.2616s-4.4568-7.6593-4.4568-7.6593S118.4425,118.8843,114.7265,120.4788z"></path>
              <path class="st8" d="M85.9896,167.0932c0,0,12.991,18.2071,43.2073,18.2071c-4.0456-4.266-12.6181,4.2421-33.8087-15.5835		c-9.0834-8.4983-1.8931-9.0481-7.8671-7.8018C82.838,162.8921,83.6612,166.8547,85.9896,167.0932z"></path>
              <path class="st8" d="M100.079,250.6267c0,0,9.2222-3.707,17.7404,5.0383l-4.4294,4.543		C113.3899,260.208,104.5994,251.7215,100.079,250.6267z"></path>
              <path class="st8" d="M152.7438,257.7661c0,0,5.6777,0.3569,9.0668,8.2402c3.3891,7.8833-5.07-1.1418-5.07-1.1418		s-10.8113,0.1433-11.6632,0.9235c-0.8518,0.7802-4.9649-8.487-4.9649-8.487l1.1151-2.8148		C141.2276,254.4863,147.5193,260.5487,152.7438,257.7661z"></path>
                      </g>
          <g id="color_index_0" fill="rgba(69, 30, 27, 1)">
                          <path d="M123.2649,114.1157c1.3275,1.0831,2.93,1.6104,4.5225,1.61c2.0799,0,4.1435-0.8985,5.5579-2.6311		c1.0354-1.269,1.5933-2.8532,1.6105-4.464c0.0103-0.9661-0.8891-1.686-1.8248-1.4451c-0.644,0.1658-1.0854,0.747-1.0884,1.412		c-0.0055,1.2069-0.5276,2.368-1.5081,3.2155c-1.2599,1.089-3.1162,1.3175-4.6046,0.5707c-2.5279-1.2685-3.1016-4.447-1.4458-6.4772		c0.1674-0.196,3.6817-4.3757,3.3797-9.0623c-0.0584-0.9065-0.9703-1.5102-1.8456-1.2676c-0.6595,0.1827-1.1071,0.799-1.0653,1.4821		c0.213,3.4794-2.6596,6.9189-2.7091,6.9777C119.7471,107.0964,120.2052,111.6178,123.2649,114.1157z"></path>
              <path d="M118.5656,86.3338c0.4772-1.6825-0.4524-3.5338-2.1452-4.1298l-10.9739-3.9547		c-1.9701-0.7151-4.1809-0.1678-5.5891,1.3936c-1.8533,2.0649-4.3196,5.4651-6.0926,10.3829		C105.5414,85.5093,118.5656,86.3338,118.5656,86.3338z"></path>
              <path d="M164.5862,90.0258c-1.773-4.9178-4.2393-8.318-6.0926-10.3829c-1.4082-1.5615-3.619-2.1087-5.5891-1.3936		l-10.9739,3.9547c-1.6927,0.596-2.6223,2.4473-2.1452,4.1298C139.7854,86.3338,152.8097,85.5093,164.5862,90.0258z"></path>
              <path d="M160.1075,95.9689c-4.261-2.1805-8.0155-3.1542-14.6519-2.2341c-2.0668,0.3303-2.518,2.4505-2.5518,4.2062		c0,3.962,3.2177,7.1797,7.1798,7.1797c4.0043,0.0054,7.2722-3.3061,7.1707-7.3095c0.5646,0.2464,1.0487,0.4902,1.4236,0.7015		c0.6222,0.3506,1.4029,0.1898,1.8469-0.3696l0.0002-0.0002C161.0814,97.4418,160.8873,96.4082,160.1075,95.9689z		 M150.0325,101.6987c-2.7279,0-4.9526-2.1946-4.9833-4.9149c0.8155-0.1693,1.6291-0.2941,2.3858-0.3678		c-0.1313,2.3568,1.4228,4.5457,3.7796,5.1295C150.8351,101.6476,150.4411,101.6987,150.0325,101.6987z"></path>
              <path d="M112.5317,93.7348c-6.6369-0.92-10.3904,0.0535-14.6519,2.2341c-0.7798,0.4393-0.9739,1.4729-0.4175,2.174		l0.0002,0.0002c0.444,0.5595,1.2246,0.7202,1.8469,0.3696c0.3746-0.2111,0.8584-0.4547,1.4223-0.7009		c-0.0008,0.0436-0.009,0.0853-0.009,0.1292c0,3.962,3.2105,7.1797,7.1798,7.1797c3.962,0,7.1797-3.2177,7.1797-7.1797		C115.0484,96.1863,114.5984,94.0643,112.5317,93.7348z M107.9025,102.0343c-2.7508,0-4.9908-2.2327-4.9908-4.9908		c0.7545-0.2495,1.5863-0.3905,2.4151-0.5249c-0.2552,2.4442,1.3208,4.7569,3.7578,5.3625		C108.7051,101.9833,108.3111,102.0343,107.9025,102.0343z"></path>
              <path d="M141.1914,52.8528c0,0-37.0583-10.8496-78.5532,11.0399c2.7021,4.8415,10.7288,6.279,15.407,2.8448		C86.4796,61.2285,107.6488,50.4192,141.1914,52.8528z"></path>
              <path d="M125.7615,151.4056c1.1387-0.2433,2.2964-0.3668,3.4541-0.3614c1.1577-0.0055,2.3153,0.1181,3.4541,0.3614		c0.6567,0.1403,1.3208-0.2014,1.6051-0.8098c0.3931-0.8414-0.085-1.8497-0.9932-2.0439c-1.3333-0.285-2.6887-0.4263-4.0441-0.4263		h-0.0219h-0.0219c-1.3554,0-2.7108,0.1413-4.0441,0.4263c-0.9081,0.1941-1.3863,1.2025-0.9932,2.0439		C124.4407,151.2041,125.1047,151.5459,125.7615,151.4056z"></path>
              <path d="M156.4419,217.5702c-8.6375-2.8082-17.8244-4.1805-27.2115-4.0893		c-9.4541-0.0827-18.6036,1.2812-27.2411,4.0893c-2.7337,0.8885-4.3038,3.7544-3.5745,6.5248l2.2107,8.3967		c0.6377,2.4234,2.831,4.0323,5.2226,4.0316c0.4514,0,0.9099-0.057,1.3663-0.1767c7.0475-1.8505,14.433-2.7561,21.9867-2.6763		h0.0285c7.5644-0.0812,14.9407,0.8251,21.9871,2.6763c2.8709,0.7524,5.8308-0.9733,6.5897-3.8549l2.2103-8.3967		C160.7457,221.3246,159.1752,218.4588,156.4419,217.5702z M157.1936,223.3525l-2.2096,8.396		c-0.3499,1.326-1.7065,2.122-3.0262,1.775c-7.2929-1.916-14.9357-2.8516-22.7424-2.7718		c-7.8117-0.0748-15.4481,0.8565-22.7424,2.7718c-1.3164,0.3449-2.6763-0.4489-3.0251-1.7742l-2.2107-8.3967		c-0.3356-1.2755,0.3908-2.5958,1.6542-3.0062c8.0675-2.6229,16.617-3.9511,25.4526-3.9511c0.295,0,0.5907,0.0014,0.8864,0.0043		c9.1299-0.0848,17.9733,1.2363,26.3094,3.9468C156.8031,220.7567,157.5292,222.0771,157.1936,223.3525z"></path>
              <path d="M257.3155,252.081c-2.1591-4.5494-7.105-5.9774-11.8619-6.3517c-2.4447-5.4894-9.3407-20.8929-18.0832-39.7352		c-8.9706-19.3336-18.5919-25.18-22.3443-26.8079c1.0533-3.0984-0.53-7.0253-3.6059-8.5064l-9.2904-5.0431		c-2.9233-1.588-6.4942-0.9774-8.7078,1.4174c-1.1228-0.1864-3.7408-0.6807-6.8577-1.6612		c0.5601-1.7932-0.4658-3.8582-2.2304-4.5089l-3.2492-1.2648c-1.584-0.616-3.3429-0.084-4.3312,1.2324		c-4.8203-3.2394-7.3918-7.2819-7.6628-12.0362c3.2021-2.0197,5.7316-4.1911,7.7292-6.5851		c7.5043-4.4674,12.4768-11.5426,14.3537-14.5444c0.4076-0.6509,0.352-1.4846-0.1368-2.0742		c-0.4902-0.5911-1.3018-0.7988-2.0194-0.5184c-1.7176,0.6739-3.8909,0.9975-6.3124,1.0234		c0.3021-3.7131-0.486-8.6431-0.8386-12.7608c1.334,0.1156,2.6552-0.136,3.8476-0.7382c4.2482-2.1355,6.2041-8.2082,7.6321-12.642		c2.2813-5.1944-2.4075-9.5142-5.8923-11.0273c0.8113-1.3089,1.4943-2.1975,1.8573-2.639		c25.1502-5.1556,39.5662-13.6084,39.5662-23.2238c0-10.2957-17.0951-19.1209-43.136-23.946C172.7614,16.3959,160.0547,0,145.2492,0		c-5.703,0-11.2258,2.4122-16.0524,6.9889C124.3696,2.4122,118.8469,0,113.1446,0c-14.8056,0-27.5129,16.3959-30.493,39.1398		c-26.0409,4.8252-43.136,13.6503-43.136,23.946c0,9.6154,14.4159,18.0681,39.5662,23.2237c0.363,0.4414,1.0461,1.3301,1.8574,2.639		c-3.4863,1.5131-8.1729,5.8345-5.8921,11.0291c1.4283,4.4335,3.3846,10.5051,7.6318,12.6403		c1.1929,0.6023,2.5139,0.8538,3.8478,0.7382c-0.3527,4.1187-1.1408,9.0464-0.8388,12.7606		c-2.4217-0.0259-4.5952-0.3495-6.3127-1.0235c-0.7168-0.2797-1.5277-0.0723-2.0186,0.5187		c-0.4892,0.5896-0.544,1.4233-0.1372,2.0735c1.877,3.0027,6.8487,10.0787,14.3539,14.5461		c1.9981,2.3937,4.5277,4.5649,7.7296,6.5844c-0.2717,4.7542-2.8437,8.7965-7.6636,12.0359		c-0.9877-1.3163-2.7436-1.8496-4.331-1.2324l-3.2492,1.2648c-1.7652,0.6504-2.79,2.7163-2.2302,4.5089		c-3.1164,0.9804-5.7344,1.4747-6.8576,1.6612c-2.2144-2.3952-5.7858-3.0033-8.7077-1.4173l-9.2729,5.0336		c-3.082,1.4816-4.6813,5.4092-3.6233,8.5157c-3.752,1.6277-13.373,7.4739-22.3443,26.808		c-8.7424,18.8421-15.6383,34.2454-18.0831,39.7349c-4.7562,0.3735-9.7072,1.8041-11.8635,6.3541		c-1.6507,3.3513-1.3682,7.1973,0.6092,10.3163c1.7764,3.0739,3.613,6.2526,3.1313,11.3915		c-0.6505,7.2412,2.4531,13.1795,8.5548,15.1323c16.0912,17.0482,46.7402,20.6665,69.8234,20.6665		c10.4122,0,19.2741-0.7351,24.5725-1.3043c4.8839,3.876,13.6874,6.6474,21.2048,6.7133c5.4771,0.0596,9.2485-1.9673,14.1577-4.6637		c2.8364-1.6199,6.1173-2.2701,9.3671-1.9414c6.9721,0.8112,23.4122,1.5823,33.8246,0.9261		c28.1865-1.4023,48.5115-8.6649,59.9471-20.8655c5.2759-2.3493,7.9128-7.92,7.3075-14.6632		c-0.4873-5.4341,1.487-8.517,3.4188-11.8903C258.7395,258.8633,258.8644,255.2558,257.3155,252.081z M199.8754,186.6456		c2.2408-3.1401,6.5887-3.6842,9.5462-1.2074c4.1947,3.5129,9.8264,10.0082,15.3009,21.7845		c5.7442,12.3797,10.6906,23.2738,14.0986,30.8414c1.533,3.4042-0.4754,7.3967-4.1421,8.099		c-2.5013,0.4791-5.0945,1.2614-7.7141,2.4523c-6.6673,3.0312-13.309,2.6763-19.1654,2.3657		c-4.3457-0.232-8.2963-0.4314-11.1188,1.0235c-4.2221-7.6524-8.0785-15.0764-10.739-20.2997		c-2.3061-4.5274-2.7135-9.7868-1.0964-14.6035C187.6749,208.6732,192.4763,197.0145,199.8754,186.6456z M191.1468,270.3129		c-1.3036,0.2314-2.8823,0.5262-4.7046,0.8919c-0.9655-3.6585-2.4963-5.7791-5.079-7.7227		c2.8368-2.2998,5.6542-5.5395,6.1102-8.2362c0.218-1.289-0.1618-2.1519-0.5216-2.6528c-0.8045-1.1109-2.3364-1.8576-4.4577-1.1664		c-0.2159-6.2818-1.4664-7.4682-2.8039-7.7632c-1.3346-0.2921-2.9692,0.2522-5.8108,5.8636		c-1.6331-1.5191-3.3383-1.4842-4.5389-0.8144c-0.533,0.3007-1.2405,0.9235-1.5847,2.1854		c-0.7339,2.6867,0.5153,6.9156,2.1657,10.2223c-3.6272,0.6744-6.252,2.5291-8.1109,4.8862		c-7.5881-4.8393-13.4533-3.0013-16.4053-1.352c-0.5523-2.6696-1.7577-5.322-4.0087-7.5884		c0.2291-0.3516,0.4395-0.7206,0.6395-1.0977c2.3148,2.8008,5.2425,3.6853,7.7828,3.6847c2.1501-0.0105,3.5559-0.518,5.1403-1.2363		c-0.2054-3.4444-1.5343-6.7557-4.0181-8.1893c-2.6937-1.6981-5.9435-1.3282-7.6195-0.9663		c-0.2516-1.8996-1.0112-3.7991-2.2852-5.6831c-0.4745-0.7016-1.4581-0.8398-2.1194-0.3108		c-0.5951,0.476-0.7143,1.328-0.2892,1.9603c2.3048,3.384,2.4659,6.8099,0.5029,9.9524c-0.3169-0.219-0.6403-0.4352-0.9855-0.6418		c-5.6413-3.3768-10.9626-4.3779-15.8143-2.9699c-4.6716,1.3534-7.741,4.6097-9.3671,6.8133		c-4.1174-6.1798-7.8352-7.6644-12.8847-7.755c0.8213-3.5561,1.0498-7.8382-0.2476-10.2432		c-0.621-1.1515-1.4511-1.5983-2.0429-1.7714c-1.3171-0.3812-2.9849-0.0285-4.2325,1.8206		c-4.0341-4.8218-5.7495-4.9878-6.9855-4.3978c-1.2366,0.59-2.1861,2.0286-0.9762,8.1971		c-2.2246-0.2009-3.5467,0.8821-4.0797,2.1483c-0.2355,0.5651-0.4108,1.4914,0.093,2.6977		c1.0731,2.5693,4.6591,5.1363,7.9942,6.7299c-5.8341,6.5883-3.0323,14.9745,0.1412,19.8212		c-0.1244,0.1505-0.1163,0.1407-0.2407,0.2912c-9.4026-3.2946-17.7152-5.0052-22.1767-5.7741		c1.424-2.199,0.0502-10.6461-3.331-16.2424c5.9534-10.7759,11.3207-21.3501,13.5833-25.8805		c1.0621,1.0675,2.5943,1.6966,4.0853,1.6859c1.0405,0.1079,6.9028-1.7065,8.0098-1.9389c2.6604-0.7124,4.4759-3.198,4.3221-5.9479		c-0.1533-2.7414-0.392-5.3781-0.7014-7.9161c-0.2645-2.1697,1.1308-4.191,3.2512-4.7215		c16.4463-4.1153,32.461-3.9558,32.672-3.9545c0.1735,0.0026,16.1852-0.1595,32.6314,3.9547		c2.1205,0.5305,3.516,2.5518,3.2515,4.7216c-0.3094,2.5379-0.5481,5.1745-0.7014,7.9159		c-0.1537,2.7499,1.6617,5.2354,4.3221,5.9479l6.487,1.7372c1.9606,0.5464,4.168-0.0346,5.6078-1.4842		c2.2613,4.5277,7.6281,15.1198,13.5767,25.8893c-0.4319,0.5575-0.8096,1.2015-1.1108,1.9714		C190.4685,263.0708,189.7909,267.6614,191.1468,270.3129z M163.798,268.1562c0.1273-0.1739,0.2598-0.345,0.3978-0.513		c1.0669,1.4108,3.4236,4.0399,6.8804,5.1814c0.8538,0.2819,1.7616-0.2621,1.9082-1.1492c0.1159-0.7013-0.2882-1.3929-0.9637-1.614		c-1.8781-0.6147-3.3797-1.8433-4.4076-2.9111c-0.7484-0.7775-0.4654-2.0568,0.5282-2.4779		c1.2858-0.5449,2.7931-0.8777,4.5613-0.9112c3.3199-0.0948,6.4136,1.1747,8.4348,3.3929c1.1892,1.3059,1.9993,2.8626,2.4396,4.6435		c-4.2529,0.9062-9.4715,2.1328-15.3576,3.7476c-1.4068-0.5428-2.6814-1.3637-3.7267-2.1799		C162.8837,272.1087,162.5919,269.8033,163.798,268.1562z M164.1351,276.6998c-1.1193,0.3253-2.2574,0.6635-3.4142,1.0158		c0.0475-0.8018,0.1667-1.9898,0.4547-3.3437C161.9572,275.099,162.9578,275.9337,164.1351,276.6998z M170.571,251.6667		c0.0791-0.2886,0.1731-0.3955,0.1988-0.4097c0.5387-0.2993,1.3581,0.5358,1.894,1.3481c0.7496,1.1863,2.5723,0.9587,3.1167-0.3178		c1.0325-2.1962,1.8744-3.6355,2.4978-4.5319c0.2726-0.3919,0.888-0.2563,0.9705,0.2139c0.1888,1.0757,0.3469,2.7362,0.3587,5.1645		c-0.0358,1.3872,1.5151,2.3637,2.6963,1.5961c0.9084-0.5395,2.4824-1.2057,2.2923,0.0292		c-0.2726,1.6088-2.5838,4.6937-6.008,7.1756c-0.8372-0.3427-1.7166-0.6047-2.6245-0.7847		c-2.1086-0.4181-3.8305-1.9184-4.5552-3.9422C170.5542,254.8224,170.2791,252.7368,170.571,251.6667z M145.7823,267.8478		c1.5035-1.1588,6.7344-4.2968,14.438,0.6073c-1.8257,3.4423-2.4582,7.3561-2.446,10.1752		c-0.9515,0.3014-1.9137,0.612-2.8855,0.9319c-3.6101,1.1884-7.5166,0.5399-10.7261-1.4959l-0.0581-0.0367		C144.7874,276.1076,145.9423,272.1607,145.7823,267.8478z M133.026,263.3305c1.2145,1.3466,2.8996,1.8065,3.7637,1.0271		c0.6138-0.5536,0.6382-1.5837,0.1715-2.6165c0.8234-0.6362,1.7315-1.4289,2.6022-2.3602c5.2387,5.592,3.1319,13.888,1.9684,17.2238		c-2.3008-1.1192-5.1133-2.1139-8.5549-2.8277c-2.7946-0.58-6.046-2.474-8.9147-4.1456c-2.9219-1.7026-5.5418-3.2276-7.758-3.5235		c-0.5383-1.7999-1.1398-3.3979-1.7896-4.8136c0.9396-1.5168,3.8197-5.5416,8.6555-6.9306		c4.1315-1.2601,9.3825-0.0415,14.1628,3.1262c-0.7863,0.8243-1.6108,1.523-2.3444,2.0771c-0.9723-0.5581-1.988-0.635-2.5969-0.0858		C131.5275,260.2604,131.8115,261.9839,133.026,263.3305z M143.2372,252.5415c0.3156-0.737,3.8759-1.1682,6.1583,0.162		c1.165,0.7389,1.951,2.0122,2.345,3.795C149.8312,256.9512,145.8198,257.2039,143.2372,252.5415z M117.2619,280.8425		c-6.0411-0.4116-13.5903-1.2939-18.5668-3.6486c0.2895-0.0778,0.5759-0.1639,0.8558-0.2615		c1.7688-0.602,0.7689-3.3886-0.9806-2.7464c-1.0371,0.3602-2.2714,0.5491-3.4068,0.6396c-1.5058,0.12-2.9258-0.6605-3.6651-1.9778		c-0.2086-0.3717-0.4223-0.7764-0.632-1.2089c0.5962,0.0515,1.266,0.0875,1.988,0.0875c1.6567,0,3.5737-0.187,5.4262-0.7947		c1.8453-0.5768,0.8951-3.4125-0.9244-2.7675c-1.6074,0.5255-3.3188,0.6612-4.7781,0.6385		c-1.7766-0.0276-3.3043-1.3773-3.4359-3.1492c-0.0289-0.3883-0.0399-0.7808-0.0305-1.176c0.9686,0.2575,2.4928,0.5659,4.255,0.5659		c1.3566,0,2.8519-0.1832,4.337-0.7131c1.7963-0.6002,0.8236-3.4086-0.9483-2.7618c-1.4852,0.5352-3.0219,0.6137-4.3281,0.5165		c-1.5745-0.1172-2.4043-1.9321-1.5119-3.2346c2.3216-3.5048,7.2085-5.9994,11.2434-5.1828		c5.0457,0.8589,8.9051,5.3252,11.2587,12.9755c-0.525,0.3337-1.0678,0.8668-1.4779,1.7187		C109.9271,272.5468,114.1267,277.7506,117.2619,280.8425z M88.7915,245.2395c-0.5522-2.4341-0.7705-4.1128-0.8224-5.2013		c-0.0211-0.4435,0.5016-0.693,0.8331-0.3976c0.8136,0.7251,1.9813,1.9508,3.5257,3.9116c0.822,1.1173,2.6506,0.9352,3.1092-0.3969		c0.3374-0.9106,0.9416-1.9103,1.5348-1.7415c1.2878,1.6232,1.096,5.3585-0.0334,9.702c-0.8912,0.2493-1.7667,0.5906-2.6135,1.0194		c-1.7962,0.9095-3.9545,0.9011-5.6717-0.1501c-2.46-1.612-4.1554-2.9557-4.447-4.4769c0.2412-0.5708,1.4016-0.4111,2.3197-0.1026		C87.8484,247.8904,89.1435,246.5827,88.7915,245.2395z M185.3443,169.2887v-0.0007c1.2949-1.6448,3.5879-2.0734,5.3933-1.0859		l9.4577,5.1339c2.3732,1.2161,2.9538,4.5847,1.1971,6.5754c-13.2377,15.7958-19.6956,36.5338-21.8581,44.7167		c-0.3695,1.525-2.0656,2.4975-3.5713,2.0607l-6.487-1.7372c-1.3296-0.3563-2.2388-1.6075-2.1626-2.9763		C168.8787,194.0112,179.2819,176.9621,185.3443,169.2887z M176.979,128.6602c-5.057,7.2238-15.2484,9.1593-22.2986,3.8349		c-0.4584-0.3218-0.8963-0.7454-1.3837-1.0664c-0.9751-0.527-2.0924,0.4685-1.871,1.5545c0.1244,0.7978,0.8202,1.3481,1.4335,1.795		c4.8543,3.6747,9.1417,4.7873,12.457,4.8648c-5.7514,3.9858-15.0792,4.503-21.8901,1.769		c-7.6868-2.661-12.7697-9.9926-12.7697-18.127v0c2.3999-1.3396,10.9227-5.4339,18.4678-0.8679		C157.5884,127.5404,169.2485,130.0354,176.979,128.6602z M85.7496,91.6897c-2.5013-5.5056-0.8697-12.1254,4.1594-15.4834		c9.1537-6.112,23.6309-10.0049,39.2879-10.0049c19.3809,0,36.9476,5.9657,44.8523,14.7211		c1.6982,1.8809,1.9975,4.6605,0.6769,6.8233c-3.0734,5.0332-7.3743,15.0394-5.385,29.6393		c0.4339,3.2029,0.5793,6.0392,0.4476,8.6279c-6.2435-0.4973-13.5293-2.6885-19.1541-6.0927		c-8.9808-5.4365-18.6248-0.7728-21.4379,0.8302c-2.8135-1.6031-12.4564-6.2669-21.4383-0.8302		c-5.6245,3.4038-12.9106,5.5952-19.1543,6.0925c-0.1316-2.5879,0.0143-5.424,0.4481-8.6267		C90.6125,105.9357,88.3022,97.3082,85.7496,91.6897z M134.7484,140.1017c-3.5804,1.2939-7.5221,1.2939-11.1037-0.0001		c2.8438-2.2065,4.5406-4.6245,5.5519-6.6265C130.2078,135.4772,131.9045,137.8952,134.7484,140.1017z M129.1969,143.9971		c1.9367,0,3.8736-0.2909,5.7389-0.8723c1.7083-0.5325,3.5488-0.5872,5.1873,0.1318c2.5708,1.128,5.6712,2.0479,9.4121,2.6078		c3.1038,0.4742,6.3157,0.3376,9.2697-0.3546c-4.4089,3.0652-10.979,5.974-18.9368,8.5332		c-0.3379,0.5899-2.9167,5.9963-10.6725,6.1678c-7.767-0.2197-10.1319-5.2938-10.6697-6.1678		c-7.9598-2.5602-14.5242-5.4662-18.9362-8.5326c2.9539,0.6917,6.1652,0.8281,9.2687,0.354		c3.7408-0.5599,6.8413-1.4799,9.412-2.6079c1.6385-0.719,3.479-0.6643,5.1872-0.1317		C125.3228,143.7062,127.2597,143.9971,129.1969,143.9971z M180.8082,98.3381c-1.3284,4.0784-3.0425,9.9615-6.4051,11.6723		c-0.8006,0.4028-1.6713,0.5316-2.6324,0.3987c-0.0244-6.31,1.2093-11.4692,2.7052-15.3928		c0.8109-2.1269,3.6232-2.6509,5.164-0.9754C180.678,95.1697,181.3663,96.6215,180.8082,98.3381z M113.1446,2.9186		c5.3092,0,10.4973,2.4672,15.0027,7.1355c3.418,3.5409,6.3739,8.3001,8.5959,13.8264c0.2928,0.7281,1.122,1.081,1.8573,0.8066h0		c0.7754-0.2893,1.1466-1.1615,0.8373-1.9292c-1.1812-2.9319-2.5643-5.6626-4.1109-8.136c-2.369-3.7884-0.758-8.8069,3.4006-10.4408		c2.1258-0.8352,4.3131-1.2626,6.5217-1.2626c13.1268,0,24.4932,14.8914,27.4809,35.6882		c-12.8218-2.1684-27.6314-3.3938-43.5332-3.3938c-12.5114,0-24.3467,0.7586-35.0697,2.1381		c-4.2926,0.5523-7.762-3.5001-6.579-7.6632C92.0962,13.6824,101.984,2.9186,113.1446,2.9186z M79.0647,83.3246		c-22.6237-4.725-36.6306-12.4424-36.6306-20.2387c0-12.0513,34.8636-24.9542,86.7627-24.9542s86.762,12.9028,86.762,24.9542		c0,7.7963-14.0069,15.5137-36.6309,20.2388c-6.3625-11.8543-26.6883-20.0418-50.1311-20.0418		C105.7537,63.2828,85.4272,71.4702,79.0647,83.3246z M83.99,110.0103c-3.1552-1.5861-4.8945-6.9855-6.1646-10.9276		c-0.7281-1.6299-0.4836-3.4269,0.5924-4.6491C80,92.43,83.162,92.9708,84.0485,95.3649c1.4362,3.8787,2.5978,8.9192,2.5742,15.0438		C85.661,110.5417,84.7907,110.4132,83.99,110.0103z M93.0756,139.6431c3.5827-0.0835,8.3017-1.3759,13.6431-5.804		c0.638-0.5288,0.7073-1.4879,0.153-2.1038c-0.5221-0.5803-1.4119-0.644-2.0129-0.1459c-0.7726,0.6403-1.5278,1.2061-2.2638,1.7051		c-6.9733,4.7835-16.6113,2.3759-21.1802-4.6343c7.7308,1.3745,19.3913-1.1205,27.8549-6.243		c7.543-4.5664,16.0687-0.4717,18.4678,0.8679v0c0,8.0602-4.9781,15.3701-12.5765,18.0591		C108.331,144.1354,98.8776,143.6785,93.0756,139.6431z M102.0773,150.4335c2.7948,1.5191,6.0147,2.9604,9.7297,4.3586		c2.5342,0.9538,4.8683,2.3565,6.8335,4.2193c2.0683,1.9606,5.5157,4.1185,10.5563,4.118c5.0403,0,8.4881-2.1582,10.5567-4.1189		c1.965-1.8625,4.299-3.2647,6.8328-4.2184c3.7148-1.3981,6.9346-2.8393,9.7292-4.3584c0.7203,5.1361,3.7225,9.4821,8.9648,12.9498		c-3.8372,6.2762-14.3088,18.9982-36.0836,18.9982c-21.7734,0-32.2467-12.7225-36.0844-18.9981		C98.355,159.9158,101.357,155.5697,102.0773,150.4335z M84.6473,164.0764c0.0484-0.1268,0.1742-0.357,0.4706-0.4717l3.2492-1.2648		c0.3785-0.1515,0.8268,0.007,1.0172,0.3791c2.7362,5.2971,13.6945,22.5814,39.8126,22.5814		c26.1199,0,37.076-17.2843,39.8122-22.5821c0.1902-0.3677,0.6277-0.5301,1.0168-0.3784l3.2499,1.2648		c0.5209,0.2972,0.6241,0.5551,0.4375,1.1208c-3.0497,6.0246-15.2735,25.6824-44.5164,25.6824		c-29.2433,0-41.4668-19.6578-44.5168-25.6824C84.5408,164.4504,84.5996,164.2003,84.6473,164.0764z M83.1575,168.0325		c4.5646,7.903,17.8291,25.294,46.0394,25.294c28.2101,0,41.4741-17.3911,46.0389-25.2941c2.4651,0.8013,4.6518,1.3149,6.1768,1.621		c-5.1012,7.0374-12.0228,19.391-15.3197,37.6478c-18.0071-5.1833-36.7225-4.991-36.8761-4.9896		c-0.1869,0.0027-18.91-0.1935-36.9164,4.9897c-3.2969-18.257-10.2187-30.6107-15.3198-37.6481		C78.5058,169.3472,80.6926,168.8337,83.1575,168.0325z M56.0456,176.2816c0.2394-1.2591,1.0239-2.3329,2.1526-2.9457l9.458-5.1339		c1.8051-0.9879,4.0973-0.558,5.3929,1.0859c6.062,7.6749,16.4659,24.7247,18.031,52.6873c0.0766,1.3688-0.833,2.62-2.1626,2.9763		l-6.487,1.7372c-1.5063,0.4368-3.202-0.5359-3.5716-2.0607c-2.1622-8.1836-8.6208-28.9216-21.8581-44.7174		C56.1486,178.8938,55.8005,177.5713,56.0456,176.2816z M33.6709,207.2226c4.8876-10.5337,9.9498-16.8352,13.9827-20.5668		c3.5034-3.2416,9.1048-2.6055,11.803,1.3317c5.9417,8.6701,10.1235,18.0925,12.8957,25.6991		c2.4793,6.8031,2.0086,14.3179-1.303,20.757c-2.5333,4.9257-5.8071,11.1632-9.3365,17.5605		c-2.8217-1.4546-6.7711-1.2556-11.1186-1.0232c-5.8593,0.3114-12.4985,0.6648-19.1661-2.3657		c-2.9297-1.3316-5.8264-2.1525-8.5985-2.6096c-3.2227-0.5315-5.016-4.0332-3.6759-7.0119		C22.569,231.403,27.6871,220.1189,33.6709,207.2226z M12.4683,285.3699c-3.4491-1.9887-5.223-6.2156-4.7456-11.3067		c0.0014-0.0146,0.0027-0.0291,0.004-0.0437c0.1943-2.1207,1.9843-3.7312,4.1071-3.5618c5.5576,0.4503,12.5541,0.562,18.3524-0.4097		c0.8215-0.1361,1.3695-0.9211,1.2026-1.7369c-0.1564-0.764-0.8849-1.2741-1.6542-1.1466c-5.5976,0.9279-12.0402,0.7753-16.78,0.439		c-3.2624-0.2315-6.2147-2.0692-7.7712-4.9457c-1.5686-2.5083-2.9473-5.4065-1.8694-8.3565		c2.0613-5.7376,8.0183-5.5514,13.5939-5.8606c4.059,0,8.6489,0.7118,13.3125,2.831c7.3179,3.3269,14.6425,2.9378,20.5289,2.6236		c6.7282-0.3584,10.3006-0.3841,11.6455,3.0518c3.209,8.2014,2.7761,11.0951,2.2324,12.0898		c-0.8542,1.1745-1.8776,0.799-3.5652,1.0788c-6.1108,0.5843-18.8262,1.7992-34.7,13.0909		C21.4154,286.7252,16.222,287.5325,12.4683,285.3699z M18.0941,289.4379c3.2266-0.2173,6.6651-1.5098,9.9594-3.8528		c15.2375-10.8393,27.4278-12.0036,33.286-12.5637c0.013-0.0013,0.0259-0.0027,0.0387-0.004		c2.3632-0.2435,4.7354-0.1331,7.0704,0.3054c4.3189,0.8112,11.0687,2.3102,18.5588,4.8274		c-0.7123,1.5717-0.4859,3.4638,0.5817,4.8038c0.6907,0.876,1.9884,2.1835,4.2258,3.5696c0.1376,3.5074,2.237,6.3861,5.1531,8.2328		c0.7358,3.965,3.6165,6.6813,7.3528,8.5437c0.1408,0.7745,0.4528,1.5471,0.9397,2.307		C87.2578,307.3479,40.774,309.5483,18.0941,289.4379z M151.0433,305.2909c2.417-1.6809,4.4091-3.1818,5.5939-4.0963		c0.6474-0.4998,0.7548-1.4302,0.2427-2.068c-0.4979-0.6202-1.3972-0.7296-2.0278-0.2448		c-3.4003,2.6144-13.7709,10.2975-21.0472,12.5714c-6.6029,1.9108-19.5936-0.8166-25.3848-6.5201		c7.0005,2.1637,14.2691,2.3663,18.3868,2.3615c1.8868,0.0127,1.855-2.9618-0.0285-2.9111		c-7.3564,0.0962-21.8489-1.1953-25.9596-7.727c5.9993,2.3196,13.3488,2.8433,16.4936,2.9594		c1.8885,0.1009,1.998-2.8733,0.1096-2.9099c-6.8296-0.2222-20.3265-2.037-22.3796-8.472		c4.1436,1.8745,10.2859,3.6346,19.3331,4.4243c1.8857,0.2004,2.1606-2.7617,0.2732-2.9065		c-17.8874-1.5568-23.4654-6.9528-24.7678-8.6049c-0.7696-0.9162-0.2553-2.4742,0.8868-2.7975		c1.719-0.5501,2.604-0.3378,7.294,1.7571c7.7018,3.4417,21.3997,3.8839,25.9481,3.9316c1.9026,0.0478,1.9195-2.9498,0.0181-2.925		c-1.424-0.019-2.7999-0.5532-3.8416-1.5241c-2.8811-2.6852-6.9093-7.2728-5.6159-9.9619c0.238-0.4952,0.4852-0.5714,0.5907-0.6035		c1.3496-0.4119,4.5817,1.4693,7.4319,3.1295c3.0611,1.7835,6.5312,3.805,9.7911,4.4812c10.764,2.233,14.5802,7.2538,15.7725,9.4668		c0.328,0.6089,1.0272,0.9145,1.6915,0.7223c0.8864-0.2564,1.3214-1.265,0.8819-2.0763c-0.097-0.1791-0.2062-0.3701-0.328-0.571		c18.0878-6.3857,33.5646-9.6101,40.8745-10.9226c1.9002-0.3412,3.8238-0.419,5.7457-0.2353l0.0322,0.0031		c5.8579,0.5601,18.0481,1.7244,33.286,12.5637c3.5859,2.5511,7.3439,3.8661,10.8123,3.8926		C216.8497,310.8781,164.5978,306.7759,151.0433,305.2909z M254.2982,260.7347c-2.271,4.123-6.5178,6.7862-11.2222,7.0116		c-4.3895,0.2151-9.7012,0.1995-14.4172-0.5819c-0.7694-0.1274-1.498,0.3829-1.6542,1.147		c-0.1667,0.8157,0.3813,1.6005,1.2027,1.7366c5.7942,0.9716,12.7977,0.86,18.352,0.4097c2.1229-0.1693,3.9129,1.4411,4.1074,3.5618		c0.0013,0.0145,0.0027,0.0291,0.0041,0.0437c0.4774,5.0912-1.2968,9.318-4.7456,11.3067c-3.753,2.1626-8.9467,1.356-13.8933-2.1633		c-15.8741-11.2917-28.5896-12.5067-34.6997-13.0909c-1.6091-0.2764-2.7724,0.1021-3.5663-1.0795		c-0.5437-0.9947-0.9762-3.8884,2.2331-12.0891c1.2652-3.9819,7.4799-3.2248,11.6452-3.0518		c5.8849,0.315,13.2114,0.704,20.5285-2.6236c8.2314-3.7409,16.2333-3.0939,21.4926-1.894		C254.6256,250.3514,257.0138,256.5124,254.2982,260.7347z"></path>
              <circle cx="84.0348" cy="217.8805" r="3.7117"></circle>
              <circle cx="174.3966" cy="217.8805" r="3.7117"></circle>
                      </g>
              </g>
    </g>
    <g id="text_group" transform="rotate(0)" opacity="1">
      <g id="text_layer_1_0" fill="rgba(253, 41, 31, 1)" transform="translate(272.46258554710994, 695.3000505259253)">
                  <path d="M25.35 74.13L20.74 74.13L20.74 90.79Q19.79 91.05 17.75 91.31Q15.71 91.57 13.71 91.57L13.71 91.57Q11.72 91.57 10.20 91.27Q8.68 90.97 7.68 90.18Q6.68 89.40 6.16 88.01Q5.64 86.63 5.64 84.37L5.64 84.37L5.64 43.49Q5.64 41.66 6.64 40.67Q7.64 39.67 9.37 39.06L9.37 39.06Q12.33 38.02 16.23 37.54Q20.14 37.06 24.56 37.06L24.56 37.06Q36.54 37.06 42.62 42.10Q48.69 47.13 48.69 55.72L48.69 55.72Q48.69 61.11 45.92 64.93Q43.14 68.74 39.32 70.83L39.32 70.83Q42.44 75.08 45.48 78.81Q48.52 82.55 50.26 85.58L50.26 85.58Q49.39 88.62 47.09 90.23Q44.79 91.83 41.92 91.83L41.92 91.83Q40.01 91.83 38.63 91.40Q37.24 90.97 36.20 90.18Q35.15 89.40 34.29 88.27Q33.42 87.15 32.64 85.84L32.64 85.84L25.35 74.13ZM20.66 62.58L26.21 62.58Q29.51 62.58 31.42 60.89Q33.33 59.20 33.33 55.90L33.33 55.90Q33.33 52.60 31.20 50.91Q29.08 49.22 24.48 49.22L24.48 49.22Q23.18 49.22 22.39 49.30Q21.61 49.39 20.66 49.56L20.66 49.56L20.66 62.58ZM75.43 81.76L75.43 81.76Q76.90 81.76 78.68 81.46Q80.46 81.16 81.33 80.64L81.33 80.64L81.33 73.69L75.08 74.21Q72.65 74.39 71.09 75.25Q69.53 76.12 69.53 77.86L69.53 77.86Q69.53 79.59 70.87 80.68Q72.22 81.76 75.43 81.76ZM74.73 47.65L74.73 47.65Q79.42 47.65 83.28 48.61Q87.15 49.56 89.88 51.52Q92.61 53.47 94.09 56.46Q95.57 59.46 95.57 63.54L95.57 63.54L95.57 82.98Q95.57 85.24 94.31 86.67Q93.05 88.10 91.31 89.14L91.31 89.14Q85.67 92.53 75.43 92.53L75.43 92.53Q70.83 92.53 67.14 91.66Q63.45 90.79 60.80 89.06Q58.16 87.32 56.72 84.63Q55.29 81.94 55.29 78.38L55.29 78.38Q55.29 72.39 58.85 69.18Q62.41 65.97 69.87 65.19L69.87 65.19L81.24 63.97L81.24 63.36Q81.24 60.85 79.03 59.76Q76.82 58.68 72.65 58.68L72.65 58.68Q69.35 58.68 66.23 59.37Q63.10 60.06 60.59 61.11L60.59 61.11Q59.46 60.33 58.68 58.72Q57.89 57.11 57.89 55.38L57.89 55.38Q57.89 53.12 58.98 51.78Q60.06 50.43 62.32 49.48L62.32 49.48Q64.84 48.52 68.27 48.09Q71.70 47.65 74.73 47.65ZM124.82 47.65L124.82 47.65Q128.38 47.65 131.80 48.65Q135.23 49.65 137.75 51.65L137.75 51.65Q140.35 49.91 143.61 48.78Q146.86 47.65 151.46 47.65L151.46 47.65Q154.76 47.65 157.93 48.52Q161.10 49.39 163.57 51.25Q166.05 53.12 167.52 56.20Q169.00 59.28 169.00 63.71L169.00 63.71L169.00 91.05Q168.13 91.31 166.26 91.57Q164.40 91.83 162.40 91.83L162.40 91.83Q160.49 91.83 158.97 91.57Q157.45 91.31 156.41 90.53Q155.37 89.75 154.81 88.40Q154.24 87.06 154.24 84.89L154.24 84.89L154.24 64.14Q154.24 61.54 152.77 60.37Q151.29 59.20 148.77 59.20L148.77 59.20Q147.56 59.20 146.17 59.76Q144.78 60.33 144.09 60.93L144.09 60.93Q144.17 61.28 144.17 61.58Q144.17 61.89 144.17 62.15L144.17 62.15L144.17 91.05Q143.22 91.31 141.35 91.57Q139.49 91.83 137.58 91.83L137.58 91.83Q135.67 91.83 134.15 91.57Q132.63 91.31 131.59 90.53Q130.55 89.75 129.98 88.40Q129.42 87.06 129.42 84.89L129.42 84.89L129.42 64.14Q129.42 61.54 127.81 60.37Q126.21 59.20 123.95 59.20L123.95 59.20Q122.39 59.20 121.26 59.67Q120.13 60.15 119.35 60.59L119.35 60.59L119.35 91.05Q118.48 91.31 116.61 91.57Q114.75 91.83 112.75 91.83L112.75 91.83Q110.84 91.83 109.32 91.57Q107.80 91.31 106.76 90.53Q105.72 89.75 105.16 88.40Q104.59 87.06 104.59 84.89L104.59 84.89L104.59 58.68Q104.59 56.33 105.59 54.94Q106.59 53.55 108.33 52.34L108.33 52.34Q111.28 50.26 115.66 48.95Q120.04 47.65 124.82 47.65ZM178.02 74.39L178.02 49.56Q178.89 49.30 180.76 49.04Q182.63 48.78 184.62 48.78L184.62 48.78Q186.53 48.78 188.05 49.04Q189.57 49.30 190.61 50.08Q191.65 50.86 192.22 52.21Q192.78 53.55 192.78 55.72L192.78 55.72L192.78 74.39Q192.78 77.95 194.52 79.46Q196.25 80.98 199.55 80.98L199.55 80.98Q201.55 80.98 202.81 80.64Q204.06 80.29 204.76 79.94L204.76 79.94L204.76 49.56Q205.63 49.30 207.49 49.04Q209.36 48.78 211.36 48.78L211.36 48.78Q213.27 48.78 214.78 49.04Q216.30 49.30 217.34 50.08Q218.39 50.86 218.95 52.21Q219.51 53.55 219.51 55.72L219.51 55.72L219.51 82.11Q219.51 86.45 215.87 88.62L215.87 88.62Q212.83 90.53 208.62 91.53Q204.41 92.53 199.46 92.53L199.46 92.53Q194.78 92.53 190.83 91.49Q186.88 90.44 184.01 88.27Q181.15 86.10 179.59 82.68Q178.02 79.25 178.02 74.39L178.02 74.39ZM274.55 85.84L262.31 71.61L262.31 90.79Q261.35 91.05 259.27 91.31Q257.19 91.57 255.19 91.57L255.19 91.57Q253.19 91.57 251.67 91.27Q250.15 90.97 249.11 90.18Q248.07 89.40 247.55 88.01Q247.03 86.63 247.03 84.37L247.03 84.37L247.03 38.54Q247.98 38.37 250.07 38.06Q252.15 37.76 254.06 37.76L254.06 37.76Q256.06 37.76 257.58 38.06Q259.10 38.37 260.14 39.15Q261.18 39.93 261.70 41.32Q262.22 42.71 262.22 44.96L262.22 44.96L262.22 58.76L280.27 38.02Q286.18 38.02 288.74 40.23Q291.30 42.44 291.30 45.48L291.30 45.48Q291.30 47.74 290.17 49.74Q289.04 51.73 286.52 54.25L286.52 54.25L275.67 65.10Q277.84 67.53 280.23 70.13Q282.62 72.74 284.92 75.21Q287.22 77.69 289.34 79.94Q291.47 82.20 293.03 83.85L293.03 83.85Q293.03 85.76 292.34 87.23Q291.64 88.71 290.47 89.75Q289.30 90.79 287.83 91.31Q286.35 91.83 284.70 91.83L284.70 91.83Q281.14 91.83 278.89 90.05Q276.63 88.27 274.55 85.84L274.55 85.84ZM298.50 37.24L298.50 37.24Q298.50 33.94 300.72 31.68Q302.93 29.42 306.57 29.42L306.57 29.42Q310.22 29.42 312.43 31.68Q314.65 33.94 314.65 37.24L314.65 37.24Q314.65 40.54 312.43 42.79Q310.22 45.05 306.57 45.05L306.57 45.05Q302.93 45.05 300.72 42.79Q298.50 40.54 298.50 37.24ZM313.95 55.72L313.95 91.05Q313.00 91.23 311.13 91.53Q309.26 91.83 307.36 91.83L307.36 91.83Q305.45 91.83 303.93 91.57Q302.41 91.31 301.37 90.53Q300.32 89.75 299.76 88.40Q299.20 87.06 299.20 84.89L299.20 84.89L299.20 49.56Q300.15 49.39 302.02 49.08Q303.88 48.78 305.79 48.78L305.79 48.78Q307.70 48.78 309.22 49.04Q310.74 49.30 311.78 50.08Q312.82 50.86 313.39 52.21Q313.95 53.55 313.95 55.72L313.95 55.72ZM360.39 71.44L356.74 70.22Q352.92 68.92 349.80 67.57Q346.68 66.23 344.42 64.32Q342.16 62.41 340.90 59.76Q339.64 57.11 339.64 53.29L339.64 53.29Q339.64 45.92 345.33 41.49Q351.02 37.06 361.26 37.06L361.26 37.06Q364.99 37.06 368.20 37.58Q371.41 38.10 373.71 39.19Q376.01 40.27 377.32 41.97Q378.62 43.66 378.62 45.92L378.62 45.92Q378.62 48.17 377.58 49.78Q376.53 51.39 375.06 52.51L375.06 52.51Q373.15 51.30 369.94 50.39Q366.73 49.48 362.91 49.48L362.91 49.48Q359.00 49.48 357.18 50.56Q355.36 51.65 355.36 53.29L355.36 53.29Q355.36 54.60 356.48 55.42Q357.61 56.25 359.87 56.94L359.87 56.94L364.47 58.42Q372.63 61.02 377.01 65.06Q381.39 69.09 381.39 76.04L381.39 76.04Q381.39 83.41 375.58 87.97Q369.76 92.53 358.48 92.53L358.48 92.53Q354.49 92.53 351.06 91.88Q347.63 91.23 345.07 89.97Q342.51 88.71 341.08 86.84Q339.64 84.98 339.64 82.55L339.64 82.55Q339.64 80.03 341.12 78.25Q342.60 76.47 344.33 75.52L344.33 75.52Q346.76 77.42 350.28 78.81Q353.79 80.20 357.96 80.20L357.96 80.20Q362.21 80.20 363.95 78.90Q365.68 77.60 365.68 75.86L365.68 75.86Q365.68 74.13 364.30 73.21Q362.91 72.30 360.39 71.44L360.39 71.44ZM407.43 81.76L407.43 81.76Q408.91 81.76 410.69 81.46Q412.47 81.16 413.34 80.64L413.34 80.64L413.34 73.69L407.09 74.21Q404.66 74.39 403.09 75.25Q401.53 76.12 401.53 77.86L401.53 77.86Q401.53 79.59 402.88 80.68Q404.22 81.76 407.43 81.76ZM406.74 47.65L406.74 47.65Q411.43 47.65 415.29 48.61Q419.15 49.56 421.89 51.52Q424.62 53.47 426.10 56.46Q427.57 59.46 427.57 63.54L427.57 63.54L427.57 82.98Q427.57 85.24 426.31 86.67Q425.05 88.10 423.32 89.14L423.32 89.14Q417.68 92.53 407.43 92.53L407.43 92.53Q402.83 92.53 399.15 91.66Q395.46 90.79 392.81 89.06Q390.16 87.32 388.73 84.63Q387.30 81.94 387.30 78.38L387.30 78.38Q387.30 72.39 390.86 69.18Q394.41 65.97 401.88 65.19L401.88 65.19L413.25 63.97L413.25 63.36Q413.25 60.85 411.04 59.76Q408.82 58.68 404.66 58.68L404.66 58.68Q401.36 58.68 398.23 59.37Q395.11 60.06 392.59 61.11L392.59 61.11Q391.46 60.33 390.68 58.72Q389.90 57.11 389.90 55.38L389.90 55.38Q389.90 53.12 390.99 51.78Q392.07 50.43 394.33 49.48L394.33 49.48Q396.85 48.52 400.27 48.09Q403.70 47.65 406.74 47.65ZM436.77 80.90L436.77 34.63Q437.64 34.37 439.55 34.07Q441.46 33.76 443.46 33.76L443.46 33.76Q445.37 33.76 446.88 34.03Q448.40 34.29 449.45 35.07Q450.49 35.85 451.01 37.19Q451.53 38.54 451.53 40.71L451.53 40.71L451.53 49.22Q453.70 48.35 455.65 48.00Q457.60 47.65 459.95 47.65L459.95 47.65Q464.11 47.65 467.85 49.13Q471.58 50.60 474.44 53.42Q477.31 56.25 478.96 60.41Q480.61 64.58 480.61 70.05L480.61 70.05Q480.61 75.69 478.91 79.90Q477.22 84.11 474.18 86.89Q471.14 89.66 466.76 91.10Q462.38 92.53 457.08 92.53L457.08 92.53Q451.35 92.53 447.36 91.18Q443.37 89.84 440.59 87.84L440.59 87.84Q436.77 85.15 436.77 80.90L436.77 80.90ZM457.08 80.90L457.08 80.90Q461.08 80.90 463.29 78.16Q465.50 75.43 465.50 70.05L465.50 70.05Q465.50 64.58 463.25 61.89Q460.99 59.20 457.17 59.20L457.17 59.20Q455.43 59.20 454.18 59.54Q452.92 59.89 451.44 60.59L451.44 60.59L451.44 79.51Q452.40 80.12 453.74 80.51Q455.09 80.90 457.08 80.90ZM487.90 37.24L487.90 37.24Q487.90 33.94 490.11 31.68Q492.32 29.42 495.97 29.42L495.97 29.42Q499.62 29.42 501.83 31.68Q504.04 33.94 504.04 37.24L504.04 37.24Q504.04 40.54 501.83 42.79Q499.62 45.05 495.97 45.05L495.97 45.05Q492.32 45.05 490.11 42.79Q487.90 40.54 487.90 37.24ZM482.69 98.43L484.95 97.04Q486.86 95.83 487.72 93.70Q488.59 91.57 488.59 88.97L488.59 88.97L488.59 49.56Q489.55 49.39 491.41 49.08Q493.28 48.78 495.19 48.78L495.19 48.78Q497.10 48.78 498.62 49.04Q500.14 49.30 501.18 50.08Q502.22 50.86 502.78 52.21Q503.35 53.55 503.35 55.72L503.35 55.72L503.35 90.36Q503.35 94.00 502.48 96.95Q501.61 99.91 500.01 102.03Q498.40 104.16 496.10 105.33Q493.80 106.50 490.94 106.50L490.94 106.50Q487.12 106.50 484.95 104.20Q482.78 101.90 482.69 98.43L482.69 98.43ZM512.37 37.24L512.37 37.24Q512.37 33.94 514.59 31.68Q516.80 29.42 520.45 29.42L520.45 29.42Q524.09 29.42 526.31 31.68Q528.52 33.94 528.52 37.24L528.52 37.24Q528.52 40.54 526.31 42.79Q524.09 45.05 520.45 45.05L520.45 45.05Q516.80 45.05 514.59 42.79Q512.37 40.54 512.37 37.24ZM527.82 55.72L527.82 91.05Q526.87 91.23 525.00 91.53Q523.14 91.83 521.23 91.83L521.23 91.83Q519.32 91.83 517.80 91.57Q516.28 91.31 515.24 90.53Q514.20 89.75 513.63 88.40Q513.07 87.06 513.07 84.89L513.07 84.89L513.07 49.56Q514.02 49.39 515.89 49.08Q517.76 48.78 519.67 48.78L519.67 48.78Q521.58 48.78 523.09 49.04Q524.61 49.30 525.65 50.08Q526.70 50.86 527.26 52.21Q527.82 53.55 527.82 55.72L527.82 55.72Z"></path>
              </g>
    </g>
    <g id="tagline_group" transform="rotate(0)" opacity="1">
      <g id="text_layer_2_0" fill="rgba(29, 29, 29, 1)" transform="translate(234.46258554711, 833.3000505259254)">
                  <path d="M0.14 13.26L8.28 13.26L8.28 33.97L12.84 33.97L12.84 13.26L20.98 13.26L20.98 9.40L0.14 9.40ZM35.02 34.21C37.83 34.21 39.86 33.30 40.91 31.69L40.91 33.97L45.05 33.97L45.05 22.98C45.05 17.58 41.93 15.02 36.53 15.02C33.51 15.02 30.60 15.79 28.60 17.33L30.32 20.53C31.72 19.37 33.90 18.67 36.00 18.67C39.12 18.67 40.67 20.18 40.67 22.74L40.67 23.02L35.83 23.02C30.14 23.02 28.04 25.47 28.04 28.60C28.04 31.86 30.74 34.21 35.02 34.21ZM32.35 28.42C32.35 27.05 33.16 25.93 36.14 25.93L40.67 25.93L40.67 28.11C39.93 30.04 38.07 31.02 35.93 31.02C33.69 31.02 32.35 30.00 32.35 28.42ZM61.83 34.21C67.09 34.21 70.32 31.93 70.32 28.42C70.32 21.09 58.74 24.46 58.74 20.67C58.74 19.44 60.00 18.56 62.67 18.56C64.46 18.56 66.25 18.91 68.04 19.97L69.72 16.63C68.04 15.61 65.20 15.02 62.70 15.02C57.65 15.02 54.46 17.33 54.46 20.88C54.46 28.35 66.04 24.98 66.04 28.56C66.04 29.86 64.88 30.63 62.11 30.63C59.76 30.63 57.23 29.86 55.58 28.77L53.90 32.11C55.58 33.30 58.70 34.21 61.83 34.21ZM80.07 18.88L80.07 27.90C80.07 32.04 82.42 34.21 86.53 34.21C88.11 34.21 89.69 33.79 90.74 32.95L89.51 29.83C88.85 30.35 87.97 30.60 87.06 30.60C85.37 30.60 84.46 29.62 84.46 27.79L84.46 18.88L89.48 18.88L89.48 15.37L84.46 15.37L84.46 11.09L80.07 11.09L80.07 15.37L76.99 15.37L76.99 18.88ZM117.34 24.70C117.34 18.84 113.34 15.02 107.86 15.02C102.29 15.02 98.18 19.02 98.18 24.60C98.18 30.18 102.25 34.21 108.53 34.21C111.76 34.21 114.39 33.16 116.08 31.16L113.72 28.46C112.39 29.83 110.74 30.49 108.64 30.49C105.37 30.49 103.09 28.74 102.57 26.00L117.27 26.00C117.30 25.58 117.34 25.05 117.34 24.70ZM107.86 18.53C110.74 18.53 112.81 20.39 113.16 23.09L102.53 23.09C102.95 20.35 105.02 18.53 107.86 18.53ZM142.57 18.88L142.57 27.90C142.57 32.04 144.92 34.21 149.02 34.21C150.60 34.21 152.18 33.79 153.23 32.95L152.01 29.83C151.34 30.35 150.46 30.60 149.55 30.60C147.87 30.60 146.95 29.62 146.95 27.79L146.95 18.88L151.97 18.88L151.97 15.37L146.95 15.37L146.95 11.09L142.57 11.09L142.57 15.37L139.48 15.37L139.48 18.88ZM162.22 33.97L166.60 33.97L166.60 24.49C166.60 20.74 168.71 18.84 171.83 18.84C174.64 18.84 176.29 20.46 176.29 23.79L176.29 33.97L180.67 33.97L180.67 23.23C180.67 17.58 177.34 15.02 172.85 15.02C170.25 15.02 168.04 15.86 166.60 17.40L166.60 7.93L162.22 7.93ZM209.24 24.70C209.24 18.84 205.24 15.02 199.76 15.02C194.18 15.02 190.08 19.02 190.08 24.60C190.08 30.18 194.15 34.21 200.43 34.21C203.66 34.21 206.29 33.16 207.97 31.16L205.62 28.46C204.29 29.83 202.64 30.49 200.54 30.49C197.27 30.49 194.99 28.74 194.46 26.00L209.17 26.00C209.20 25.58 209.24 25.05 209.24 24.70ZM199.76 18.53C202.64 18.53 204.71 20.39 205.06 23.09L194.43 23.09C194.85 20.35 196.92 18.53 199.76 18.53ZM234.29 33.97L252.71 33.97L252.71 30.14L238.85 30.14L238.85 23.37L250.71 23.37L250.71 19.61L238.85 19.61L238.85 13.23L252.22 13.23L252.22 9.40L234.29 9.40ZM268.54 34.21C273.80 34.21 277.03 31.93 277.03 28.42C277.03 21.09 265.45 24.46 265.45 20.67C265.45 19.44 266.71 18.56 269.38 18.56C271.17 18.56 272.96 18.91 274.75 19.97L276.43 16.63C274.75 15.61 271.91 15.02 269.42 15.02C264.36 15.02 261.17 17.33 261.17 20.88C261.17 28.35 272.75 24.98 272.75 28.56C272.75 29.86 271.59 30.63 268.82 30.63C266.47 30.63 263.94 29.86 262.29 28.77L260.61 32.11C262.29 33.30 265.42 34.21 268.54 34.21ZM291.98 34.21C297.24 34.21 300.47 31.93 300.47 28.42C300.47 21.09 288.89 24.46 288.89 20.67C288.89 19.44 290.15 18.56 292.82 18.56C294.61 18.56 296.40 18.91 298.19 19.97L299.87 16.63C298.19 15.61 295.35 15.02 292.86 15.02C287.80 15.02 284.61 17.33 284.61 20.88C284.61 28.35 296.19 24.98 296.19 28.56C296.19 29.86 295.03 30.63 292.26 30.63C289.91 30.63 287.38 29.86 285.73 28.77L284.05 32.11C285.73 33.30 288.86 34.21 291.98 34.21ZM327.24 24.70C327.24 18.84 323.24 15.02 317.77 15.02C312.19 15.02 308.08 19.02 308.08 24.60C308.08 30.18 312.15 34.21 318.44 34.21C321.66 34.21 324.30 33.16 325.98 31.16L323.63 28.46C322.30 29.83 320.65 30.49 318.54 30.49C315.28 30.49 313.00 28.74 312.47 26.00L327.17 26.00C327.21 25.58 327.24 25.05 327.24 24.70ZM317.77 18.53C320.65 18.53 322.72 20.39 323.07 23.09L312.44 23.09C312.86 20.35 314.93 18.53 317.77 18.53ZM341.21 33.97L341.21 24.49C341.21 20.74 343.31 18.84 346.44 18.84C349.24 18.84 350.89 20.46 350.89 23.79L350.89 33.97L355.28 33.97L355.28 23.23C355.28 17.58 351.95 15.02 347.45 15.02C344.72 15.02 342.44 15.93 341.00 17.65L341.00 15.23L336.82 15.23L336.82 33.97ZM374.82 34.21C378.47 34.21 381.39 32.63 382.82 29.83L379.46 27.86C378.33 29.65 376.65 30.46 374.79 30.46C371.56 30.46 369.10 28.25 369.10 24.60C369.10 20.98 371.56 18.74 374.79 18.74C376.65 18.74 378.33 19.54 379.46 21.33L382.82 19.37C381.39 16.53 378.47 15.02 374.82 15.02C368.89 15.02 364.68 18.98 364.68 24.60C364.68 30.21 368.89 34.21 374.82 34.21ZM409.60 24.70C409.60 18.84 405.60 15.02 400.12 15.02C394.54 15.02 390.44 19.02 390.44 24.60C390.44 30.18 394.51 34.21 400.79 34.21C404.02 34.21 406.65 33.16 408.33 31.16L405.98 28.46C404.65 29.83 403.00 30.49 400.90 30.49C397.63 30.49 395.35 28.74 394.82 26.00L409.53 26.00C409.56 25.58 409.60 25.05 409.60 24.70ZM400.12 18.53C403.00 18.53 405.07 20.39 405.42 23.09L394.79 23.09C395.21 20.35 397.28 18.53 400.12 18.53ZM442.65 34.21C448.48 34.21 452.65 30.21 452.65 24.60C452.65 18.98 448.48 15.02 442.65 15.02C436.90 15.02 432.69 18.98 432.69 24.60C432.69 30.21 436.90 34.21 442.65 34.21ZM442.65 30.46C439.49 30.46 437.11 28.18 437.11 24.60C437.11 21.02 439.49 18.74 442.65 18.74C445.84 18.74 448.23 21.02 448.23 24.60C448.23 28.18 445.84 30.46 442.65 30.46ZM459.74 18.88L462.83 18.88L462.83 33.97L467.21 33.97L467.21 18.88L472.23 18.88L472.23 15.37L467.07 15.37L467.07 14.25C467.07 12.25 468.02 11.23 469.85 11.23C470.76 11.23 471.60 11.54 472.27 12.00L473.50 8.70C472.51 8.00 471.04 7.68 469.53 7.68C465.18 7.68 462.83 10.25 462.83 14.18L462.83 15.37L459.74 15.37ZM496.02 33.97L500.58 33.97L500.58 9.40L496.02 9.40ZM516.55 33.97L516.55 24.49C516.55 20.74 518.65 18.84 521.78 18.84C524.59 18.84 526.23 20.46 526.23 23.79L526.23 33.97L530.62 33.97L530.62 23.23C530.62 17.58 527.29 15.02 522.80 15.02C520.06 15.02 517.78 15.93 516.34 17.65L516.34 15.23L512.16 15.23L512.16 33.97ZM555.53 7.93L555.53 17.54C554.06 15.83 551.92 15.02 549.50 15.02C544.06 15.02 540.02 18.77 540.02 24.60C540.02 30.42 544.06 34.21 549.50 34.21C552.06 34.21 554.24 33.33 555.71 31.55L555.71 33.97L559.92 33.97L559.92 7.93ZM550.02 30.46C546.87 30.46 544.45 28.18 544.45 24.60C544.45 21.02 546.87 18.74 550.02 18.74C553.18 18.74 555.60 21.02 555.60 24.60C555.60 28.18 553.18 30.46 550.02 30.46ZM573.25 12.14C574.90 12.14 576.06 10.95 576.06 9.40C576.06 7.97 574.87 6.88 573.25 6.88C571.64 6.88 570.45 8.04 570.45 9.51C570.45 10.98 571.64 12.14 573.25 12.14ZM571.04 33.97L575.43 33.97L575.43 15.23L571.04 15.23ZM592.20 34.21C595.01 34.21 597.04 33.30 598.10 31.69L598.10 33.97L602.24 33.97L602.24 22.98C602.24 17.58 599.11 15.02 593.71 15.02C590.69 15.02 587.78 15.79 585.78 17.33L587.50 20.53C588.90 19.37 591.08 18.67 593.18 18.67C596.31 18.67 597.85 20.18 597.85 22.74L597.85 23.02L593.01 23.02C587.32 23.02 585.22 25.47 585.22 28.60C585.22 31.86 587.92 34.21 592.20 34.21ZM589.54 28.42C589.54 27.05 590.34 25.93 593.32 25.93L597.85 25.93L597.85 28.11C597.11 30.04 595.25 31.02 593.11 31.02C590.87 31.02 589.54 30.00 589.54 28.42Z"></path>
              </g>
    </g>
  </svg>